<svg width="32" height="32" viewBox="0 0 32 32" fill="none" xmlns="http://www.w3.org/2000/svg">
<rect opacity="0.1" width="32" height="32" rx="16" fill="#FDDF4E"/>
<path d="M11.3705 19.7852C11.3836 19.8009 11.3915 19.8203 11.3933 19.8407C11.3952 19.8611 11.3908 19.8815 11.3807 19.8994C11.3319 19.9786 11.262 20.0425 11.1788 20.0841C11.0956 20.1257 11.0025 20.1431 10.9099 20.1346C10.7448 20.1168 10.5927 20.0371 10.4842 19.9114C10.3757 19.7858 10.319 19.6236 10.3255 19.4578C10.3227 19.2317 10.3639 19.0073 10.447 18.7971C10.4994 18.6653 10.5048 18.5195 10.4624 18.3842C10.42 18.2489 10.3324 18.1323 10.2142 18.0541C10.1442 18.0078 10.0657 17.976 9.9832 17.9605C9.90074 17.9451 9.81602 17.9463 9.73405 17.9642C9.65373 17.9811 9.57761 18.0138 9.51015 18.0606C9.44269 18.1073 9.38527 18.1671 9.34125 18.2364C9.27898 18.343 9.23056 18.4571 9.19718 18.5759C9.19073 18.5969 9.18554 18.6133 9.1816 18.6239C9.12689 18.7715 9.03968 18.8145 8.98059 18.8066C8.95265 18.8027 8.91424 18.784 8.88962 18.7165C8.85871 18.5213 8.87274 18.3215 8.93062 18.1325C8.98851 17.9435 9.08874 17.7702 9.22368 17.6258C9.33701 17.5041 9.47768 17.4111 9.63406 17.3546C9.79044 17.298 9.95804 17.2795 10.123 17.3006C10.2977 17.3246 10.4638 17.3916 10.6063 17.4955C10.7488 17.5994 10.8633 17.7371 10.9396 17.8962C11.0168 18.0917 11.048 18.3023 11.0306 18.5118C11.0133 18.7213 10.948 18.9239 10.8397 19.1041C10.826 19.1347 10.8135 19.1628 10.8029 19.1883C10.764 19.2586 10.7426 19.3374 10.7406 19.4178C10.7386 19.4981 10.756 19.5778 10.7914 19.6501C10.8213 19.6931 10.8614 19.7281 10.9081 19.7519C10.9549 19.7756 11.0068 19.7874 11.0592 19.7862C11.1086 19.7855 11.1577 19.7786 11.2054 19.7656C11.2675 19.751 11.3316 19.7361 11.3705 19.7852ZM26.666 20.167C26.6314 20.8793 26.4809 21.5811 26.2205 22.2449C24.9216 25.367 21.8217 27.1051 18.1289 26.9951C14.6864 26.8925 11.7503 25.0704 10.4652 22.1001C9.65398 22.0774 8.8779 21.764 8.27844 21.2169C7.65918 20.689 7.26131 19.9473 7.16396 19.1394C7.10112 18.5836 7.16986 18.0208 7.36463 17.4964L6.64295 16.8832C3.34081 14.0866 13.669 2.57152 16.9724 5.4616C16.9891 5.47615 18.0961 6.56573 18.0989 6.56841C18.1033 6.56617 18.7097 6.30823 18.7128 6.30697C21.6101 5.10353 23.9612 5.6846 23.9642 7.60473C23.9657 8.60332 23.3313 9.76726 22.3152 10.8238C22.7213 11.2371 23.0088 11.752 23.1477 12.3146C23.2597 12.7071 23.3203 13.1125 23.3278 13.5206C23.3455 13.9275 23.365 14.8755 23.367 14.8924C23.3927 14.9002 23.6861 14.981 23.775 15.006C24.3661 15.1357 24.9162 15.409 25.3766 15.8017C25.6197 16.0394 25.7789 16.3496 25.8301 16.6857C25.8928 17.1217 25.784 17.565 25.5266 17.9224C25.5936 18.0752 25.6517 18.2316 25.7007 18.391C25.7862 18.666 25.8484 18.8943 25.858 18.9281C26.1723 18.9281 26.666 19.2911 26.666 20.167ZM12.073 18.4538C11.8485 16.9959 10.8653 16.4821 10.1981 16.4455C10.0307 16.4366 9.86274 16.4486 9.69823 16.4811C8.50748 16.7221 7.83496 17.7381 7.96729 19.0583C8.06367 19.6505 8.35691 20.1929 8.79964 20.5978C9.24236 21.0028 9.80869 21.2466 10.4071 21.2899C10.5216 21.293 10.6362 21.2849 10.7491 21.2658C11.956 21.0594 12.272 19.7449 12.073 18.4538ZM14.1083 9.19921C15.117 8.36996 16.193 7.62616 17.3251 6.97552C17.3251 6.97552 16.4262 5.93004 16.1547 5.85299C14.485 5.40026 10.8781 7.89534 8.57517 11.1917C7.64335 12.5255 6.30942 14.8875 6.9472 16.1022C7.17377 16.3749 7.42935 16.6221 7.70943 16.8394C8.13582 16.2384 8.7792 15.8267 9.50358 15.6914C10.4098 13.1438 12.0036 10.8968 14.1083 9.19921ZM17.7373 20.7361C17.7815 20.9298 17.8773 21.108 18.0144 21.2518C18.1516 21.3957 18.3251 21.4998 18.5165 21.5531C18.7157 21.6274 18.9211 21.6833 19.1304 21.7204C21.7716 22.1761 24.2408 20.6613 24.7967 20.2798C24.8384 20.2512 24.866 20.2791 24.8325 20.3297C24.8158 20.3566 24.7976 20.3826 24.7781 20.4075C24.0977 21.2879 22.2685 22.3073 19.8887 22.3069C18.8508 22.3067 17.8134 21.94 17.4325 21.3764C16.8416 20.5019 17.4032 19.2256 18.3879 19.3586C18.3891 19.3587 18.7248 19.3969 18.8192 19.4074C20.3498 19.5546 21.8927 19.307 23.3003 18.6881C24.6438 18.0626 25.1513 17.3742 25.0751 16.817C25.0497 16.6439 24.9683 16.4839 24.8435 16.3614C24.4761 16.059 24.0399 15.8517 23.5734 15.7579C23.36 15.6978 23.2153 15.6595 23.0593 15.6079C22.782 15.5163 22.6449 15.4426 22.6138 14.9196C22.6003 14.6908 22.5606 13.8939 22.5462 13.5646C22.5208 12.9876 22.4517 12.1989 21.9637 11.8732C21.8395 11.7914 21.6953 11.7452 21.5466 11.7395C21.4633 11.7344 21.3797 11.7426 21.299 11.7638C21.0518 11.821 20.8265 11.9487 20.6506 12.1315C20.4225 12.3376 20.1543 12.4944 19.8628 12.592C19.5714 12.6896 19.2629 12.7259 18.9567 12.6986C18.6153 12.6844 18.2535 12.631 17.8387 12.6063C17.758 12.6016 17.677 12.5965 17.5962 12.5924C17.0622 12.6064 16.5509 12.8117 16.1556 13.171C15.7602 13.5302 15.507 14.0195 15.4421 14.5497C15.2046 16.1885 16.3878 17.0353 16.7293 17.5322C16.7821 17.5955 16.8148 17.673 16.8234 17.755C16.8143 17.8459 16.7708 17.9299 16.7018 17.9897V17.9902C16.2293 18.5166 15.8972 19.1536 15.7363 19.8424C15.5754 20.5312 15.5907 21.2494 15.781 21.9306C15.8262 22.0942 15.8841 22.254 15.9541 22.4086C16.8174 24.4322 19.4956 25.3745 22.1121 24.5173C22.4547 24.4051 22.7872 24.2643 23.1061 24.0963C23.6791 23.8123 24.195 23.4255 24.6283 22.9552C25.3022 22.2779 25.7456 21.4057 25.8957 20.4621C25.9744 19.9405 25.8591 19.7388 25.7019 19.6417C25.5908 19.5798 25.4623 19.5562 25.3364 19.5747C25.2698 19.1651 25.1529 18.7653 24.9884 18.3843C24.2411 18.9482 23.3964 19.3696 22.4965 19.6274C21.4137 19.9334 20.2873 20.0555 19.1641 19.9889C18.4416 19.9303 17.9635 19.7187 17.7838 20.3048C18.8767 20.6703 20.0372 20.7887 21.1815 20.6515C21.1896 20.6507 21.1977 20.6514 21.2054 20.6538C21.2132 20.6561 21.2204 20.6599 21.2267 20.6651C21.2329 20.6702 21.2381 20.6765 21.242 20.6836C21.2458 20.6908 21.2481 20.6986 21.2489 20.7066C21.2501 20.7202 21.2471 20.7337 21.2403 20.7455C21.2335 20.7572 21.2232 20.7666 21.2108 20.7722C21.2108 20.7722 19.8687 21.3972 17.7373 20.7361ZM13.8067 11.233C14.6944 10.6098 15.6953 10.1661 16.7532 9.92675C17.9465 9.6502 19.187 9.64685 20.3818 9.91697C20.4237 9.92657 20.4503 9.85392 20.4129 9.83291C19.7929 9.51007 19.1084 9.33012 18.4098 9.30627C18.4031 9.30615 18.3965 9.30417 18.3908 9.30056C18.3851 9.29694 18.3806 9.29183 18.3776 9.28579C18.3746 9.27974 18.3734 9.273 18.374 9.2663C18.3746 9.25959 18.3771 9.25319 18.3811 9.2478C18.4897 9.10535 18.6164 8.97778 18.7582 8.86836C18.7645 8.8634 18.7691 8.85654 18.7713 8.84879C18.7735 8.84103 18.7732 8.83279 18.7703 8.82524C18.7675 8.8177 18.7623 8.81125 18.7556 8.80684C18.7489 8.80243 18.7409 8.80029 18.7328 8.80073C17.8773 8.88531 17.0551 9.17648 16.337 9.64918C16.3309 9.65334 16.3236 9.65555 16.3162 9.65553C16.3088 9.65551 16.3016 9.65326 16.2954 9.64908C16.2893 9.64489 16.2846 9.63896 16.2819 9.63206C16.2792 9.62516 16.2787 9.61761 16.2803 9.61038C16.3381 9.39361 16.4233 9.18507 16.5338 8.9898C16.5375 8.98312 16.5389 8.97544 16.5379 8.9679C16.5368 8.96035 16.5334 8.95333 16.5281 8.94787C16.5228 8.94241 16.5159 8.9388 16.5083 8.93757C16.5008 8.93634 16.4931 8.93755 16.4863 8.94103C15.4478 9.51426 14.5228 10.2725 13.757 11.1784C13.751 11.1852 13.7477 11.1941 13.7478 11.2032C13.7479 11.2123 13.7513 11.2211 13.7575 11.2278C13.7636 11.2346 13.772 11.2388 13.7811 11.2398C13.7901 11.2408 13.7993 11.2384 13.8067 11.233ZM20.7619 16.7957C20.8342 16.8415 20.9208 16.8591 21.0052 16.845C21.0896 16.831 21.1659 16.7864 21.2194 16.7197C21.2861 16.5908 21.1893 16.4159 21.0033 16.329C20.931 16.2832 20.8444 16.2657 20.76 16.2798C20.6756 16.2938 20.5993 16.3385 20.5457 16.4052C20.479 16.5341 20.5758 16.709 20.7619 16.7957ZM21.3325 14.7048C21.3771 14.937 21.4734 15.1561 21.6142 15.346C21.7597 15.3281 21.9068 15.3281 22.0523 15.346C22.1374 15.0911 22.1448 14.8168 22.0737 14.5577C21.9686 14.0797 21.8263 13.7904 21.5322 13.8354C21.2383 13.8805 21.2274 14.2268 21.3325 14.7048ZM21.958 15.8029C21.8839 15.7816 21.8049 15.7841 21.7322 15.81C21.6596 15.8359 21.5968 15.8839 21.5529 15.9473C21.5089 16.0107 21.4859 16.0863 21.4871 16.1634C21.4883 16.2405 21.5136 16.3154 21.5595 16.3774C21.6055 16.4394 21.6696 16.4854 21.7431 16.5091C21.8165 16.5327 21.8955 16.5328 21.969 16.5092C22.0424 16.4856 22.1067 16.4396 22.1526 16.3777C22.1986 16.3157 22.224 16.2409 22.2253 16.1638C22.236 16.0808 22.2141 15.9968 22.1643 15.9296C22.1145 15.8623 22.0406 15.8169 21.958 15.8029Z" fill="black"/>
<path d="M17.0762 15.7601C17.0293 15.7535 17.0093 15.7335 17.0034 15.7069C16.9852 15.6244 17.112 15.4887 17.2457 15.3907C17.4408 15.2481 17.6694 15.158 17.9093 15.1292C18.1493 15.1004 18.3927 15.1338 18.616 15.2262C18.8247 15.3123 19.0041 15.4567 19.1328 15.6422C19.1806 15.7202 19.1898 15.7806 19.1589 15.8123C19.1108 15.8631 18.988 15.8049 18.7881 15.7173C18.548 15.5995 18.2827 15.5423 18.0154 15.5508C17.6987 15.6029 17.3851 15.6728 17.0762 15.7601ZM19.0684 16.1703C18.982 16.0795 18.8745 16.0115 18.7554 15.9725C18.6363 15.9335 18.5095 15.9246 18.3861 15.9466C18.2042 15.966 18.0319 16.0378 17.8901 16.1534C17.824 16.2008 17.7786 16.2717 17.7631 16.3516C17.7628 16.3605 17.7644 16.3693 17.7678 16.3775C17.7713 16.3857 17.7764 16.3931 17.783 16.399C17.7948 16.4097 17.8101 16.4155 17.8259 16.4153C17.8913 16.4057 17.9553 16.388 18.0164 16.3625C18.2836 16.2618 18.5723 16.2318 18.8545 16.2755C18.9853 16.2902 19.0471 16.2983 19.0758 16.2534C19.0831 16.2405 19.0864 16.2256 19.0851 16.2107C19.0837 16.1959 19.0779 16.1817 19.0684 16.1703Z" fill="black"/>
</svg>
